<svg preserveAspectRatio="none" width="100%" height="100%" overflow="visible" style="display: block;" viewBox="0 0 21 21" fill="none" xmlns="http://www.w3.org/2000/svg">
<g id="Group">
<path id="Vector" opacity="0" d="M21 0H0V21H21V0Z" fill="var(--fill-0, black)"/>
<path id="Vector_2" d="M5.14936 21H6.52476C7.18564 21 7.62843 20.5421 7.62843 19.8605V18.5107C7.62843 17.8289 7.18564 17.3711 6.52476 17.3711H5.14936C4.48179 17.3711 4.03898 17.8289 4.03898 18.5107V19.8605C4.03898 20.5421 4.48179 21 5.14936 21ZM5.49824 19.7451C5.3607 19.7451 5.28019 19.6604 5.28019 19.5281V18.8532C5.28019 18.7175 5.3607 18.626 5.49824 18.626H6.18259C6.30671 18.626 6.38722 18.7175 6.38722 18.8532V19.5281C6.38722 19.6604 6.30671 19.7451 6.18259 19.7451H5.49824ZM4.93467 17.9646H6.71262C6.75623 15.1802 7.69555 12.7214 9.37286 10.7272L8.05445 9.58768C6.0786 11.9312 4.97492 14.7529 4.93467 17.9646ZM18.2693 7.6783H19.6448C20.3089 7.6783 20.7518 7.22724 20.7518 6.54215V5.18895C20.7518 4.50727 20.3089 4.05281 19.6448 4.05281H18.2693C17.6085 4.05281 17.1657 4.50727 17.1657 5.18895V6.54215C17.1657 7.22724 17.6085 7.6783 18.2693 7.6783ZM18.6182 6.42345C18.484 6.42345 18.4069 6.33866 18.4069 6.20639V5.53488C18.4069 5.39922 18.484 5.30765 18.6182 5.30765H19.3059C19.4334 5.30765 19.5105 5.39922 19.5105 5.53488V6.20639C19.5105 6.33866 19.4334 6.42345 19.3059 6.42345H18.6182ZM9.88277 7.79019L10.7717 9.33333C12.7174 7.69865 15.0657 6.81346 17.7628 6.78972V4.99224C14.7604 5.01598 12.1203 5.98934 9.88277 7.79019ZM8.41006 10.3982L7.33994 9.38417L0.972847 15.8145L2.01278 16.8658L8.41006 10.3982ZM9.45668 7.23398L10.5235 8.24806L16.5618 2.15698L15.5219 1.10223L9.45668 7.23398ZM16.1626 2.81492C16.9208 2.81492 17.5347 2.19767 17.5347 1.4312C17.5347 0.664728 16.9208 0.0440891 16.1626 0.0440891C15.4011 0.0440891 14.7872 0.664728 14.7872 1.4312C14.7872 2.19767 15.4011 2.81492 16.1626 2.81492ZM1.36869 17.9273C2.13355 17.9273 2.74744 17.3067 2.74744 16.5436C2.74744 15.7771 2.13355 15.1531 1.36869 15.1531C0.613898 15.1531 0 15.7771 0 16.5436C0 17.3067 0.613898 17.9273 1.36869 17.9273ZM9.19506 11.5242C10.5134 11.5242 11.5869 10.4424 11.5869 9.10947C11.5869 7.77665 10.5134 6.69137 9.19506 6.69137C7.87665 6.69137 6.80655 7.77665 6.80655 9.10947C6.80655 10.4424 7.87665 11.5242 9.19506 11.5242ZM9.19506 10.0387C8.68514 10.0387 8.27588 9.62498 8.27588 9.10947C8.27588 8.59062 8.68514 8.17686 9.19506 8.17686C9.70834 8.17686 10.1176 8.59062 10.1176 9.10947C10.1176 9.62498 9.70834 10.0387 9.19506 10.0387Z" fill="var(--fill-0, #343434)"/>
</g>
</svg>
