<svg preserveAspectRatio="none" width="100%" height="100%" overflow="visible" style="display: block;" viewBox="0 0 22 22" fill="none" xmlns="http://www.w3.org/2000/svg">
<g id="Group">
<path id="Vector" opacity="0" d="M22 0H0V22H22V0Z" fill="var(--fill-0, black)"/>
<path id="Vector_2" d="M14.4138 21.9999H18.9311C20.7789 21.9999 21.6716 21.1072 21.6716 19.1913V14.6651C21.6716 12.7491 20.7789 11.8564 18.9311 11.8564H14.4138C12.5617 11.8564 11.6777 12.7491 11.6777 14.6651V19.1913C11.6777 21.1072 12.5617 21.9999 14.4138 21.9999ZM14.4228 19.8405C13.9919 19.8405 13.8009 19.6421 13.8009 19.2048V14.656C13.8009 14.2187 13.9919 14.0159 14.4228 14.0159H18.9311C19.3486 14.0159 19.5441 14.2187 19.5441 14.656V19.2048C19.5441 19.6421 19.3486 19.8405 18.9311 19.8405H14.4228Z" fill="var(--fill-0, #343434)"/>
<path id="Vector_3" d="M2.74056 22H7.25337C9.10115 22 9.99391 21.1074 9.99391 19.1914V14.6652C9.99391 12.7492 9.10115 11.8566 7.25337 11.8566H2.74056C0.888349 11.8566 0 12.7492 0 14.6652V19.1914C0 21.1074 0.888349 22 2.74056 22ZM2.74056 19.8406C2.32303 19.8406 2.1276 19.6422 2.1276 19.205V14.6561C2.1276 14.2189 2.32303 14.016 2.74056 14.016H7.24893C7.66645 14.016 7.86633 14.2189 7.86633 14.6561V19.205C7.86633 19.6422 7.66645 19.8406 7.24893 19.8406H2.74056Z" fill="var(--fill-0, #343434)"/>
<path id="Vector_4" d="M14.4138 10.1477H18.9311C20.7789 10.1477 21.6716 9.26415 21.6716 7.34363V2.81289C21.6716 0.896905 20.7789 0.00878906 18.9311 0.00878906H14.4138C12.5617 0.00878906 11.6777 0.896905 11.6777 2.81289V7.34363C11.6777 9.26415 12.5617 10.1477 14.4138 10.1477ZM14.4228 7.99282C13.9919 7.99282 13.8009 7.79445 13.8009 7.34814V2.79937C13.8009 2.37109 13.9919 2.16371 14.4228 2.16371H18.9311C19.3486 2.16371 19.5441 2.37109 19.5441 2.79937V7.34814C19.5441 7.79445 19.3486 7.99282 18.9311 7.99282H14.4228Z" fill="var(--fill-0, #343434)"/>
<path id="Vector_5" d="M2.74056 10.148H7.25337C9.10115 10.148 9.99391 9.26437 9.99391 7.34386V2.81312C9.99391 0.897132 9.10115 0.0090164 7.25337 0.0090164H2.74056C0.888349 0.0090164 0 0.897132 0 2.81312V7.34386C0 9.26437 0.888349 10.148 2.74056 10.148ZM2.74056 7.99304C2.32303 7.99304 2.1276 7.79468 2.1276 7.34836V2.7996C2.1276 2.37131 2.32303 2.16394 2.74056 2.16394H7.24893C7.66645 2.16394 7.86633 2.37131 7.86633 2.7996V7.34836C7.86633 7.79468 7.66645 7.99304 7.24893 7.99304H2.74056Z" fill="var(--fill-0, #343434)"/>
</g>
</svg>
