<svg preserveAspectRatio="none" width="100%" height="100%" overflow="visible" style="display: block;" viewBox="0 0 23 34" fill="none" xmlns="http://www.w3.org/2000/svg">
<g id="logo">
<path id="Vector" d="M7.49007 18.1828V18.1514C7.49007 18.1343 7.49007 18.1173 7.49007 18.0993V17.9287H7.49277C7.60477 13.685 10.914 10.3089 14.9801 10.3089L15 1.89602C15 0.300925 13.4483 -0.552306 12.2995 0.397026L1.26445 9.44397C0.462428 10.1535 0 11.198 0 12.3V32.4426C0.00361272 33.7943 1.53089 34.5011 2.48194 33.5904L7.49007 29.6494V18.1837V18.1828Z" fill="var(--fill-0, #343434)"/>
<path id="Vector_2" d="M18.6852 23.5534L23 19.6029V19.7114V18.076C23 13.6093 19.4294 10 15.0277 10H15V23.4497C15 24.7363 16.384 25.4609 17.3354 24.6727L18.6852 23.5544V23.5534Z" fill="var(--fill-0, #343434)"/>
</g>
</svg>
