<svg preserveAspectRatio="none" width="100%" height="100%" overflow="visible" style="display: block;" viewBox="0 0 24.7005 30.0111" fill="none" xmlns="http://www.w3.org/2000/svg">
<path id="Icon" d="M12.3502 1.7548V28.3548M23.5502 15.0548C23.5502 21.9266 16.0547 26.9246 13.3274 28.5156C13.0175 28.6964 12.8625 28.7869 12.6438 28.8338C12.4741 28.8702 12.2264 28.8702 12.0567 28.8338C11.838 28.7869 11.683 28.6964 11.3731 28.5156C8.64579 26.9246 1.15024 21.9266 1.15024 15.0548V8.35944C1.15024 7.24012 1.15024 6.68047 1.33331 6.19939C1.49503 5.7744 1.75782 5.39519 2.09897 5.09454C2.48514 4.75421 3.00916 4.5577 4.05721 4.16469L11.5637 1.34974C11.8548 1.2406 12.0003 1.18603 12.15 1.16439C12.2828 1.1452 12.4177 1.1452 12.5505 1.16439C12.7002 1.18603 12.8457 1.2406 13.1368 1.34974L20.6433 4.16469C21.6913 4.55771 22.2154 4.75421 22.6015 5.09454C22.9427 5.39519 23.2055 5.7744 23.3672 6.19939C23.5502 6.68047 23.5502 7.24012 23.5502 8.35944V15.0548Z" stroke="var(--stroke-0, #343434)" stroke-width="2.3" stroke-linecap="round" stroke-linejoin="round"/>
</svg>
