<svg preserveAspectRatio="none" width="100%" height="100%" overflow="visible" style="display: block;" viewBox="0 0 93 112.724" fill="none" xmlns="http://www.w3.org/2000/svg">
<g id="Paper" filter="url(#filter0_ddd_0_36)">
<g id="Paper_2">
<path d="M24.5 72.2241H68.5C70.7091 72.2241 72.5 70.4333 72.5 68.2241V12.5L60.5 0.5H24.5C22.2909 0.5 20.5 2.29086 20.5 4.5V68.2241C20.5 70.4333 22.2909 72.2241 24.5 72.2241Z" fill="url(#paint0_linear_0_36)"/>
<path d="M72.75 68.2246C72.7497 70.5716 70.8471 72.4746 68.5 72.4746H24.5C22.1529 72.4746 20.2503 70.5716 20.25 68.2246V4.5C20.25 2.15279 22.1528 0.25 24.5 0.25H60.6035L72.75 12.3965V68.2246Z" stroke="var(--stroke-0, black)" stroke-opacity="0.08" stroke-width="0.5"/>
</g>
<path id="Corner" d="M60.5 0.5L72.5 12.5H60.5V0.5Z" fill="var(--fill-0, #E9EAEB)"/>
</g>
<defs>
<filter id="filter0_ddd_0_36" x="0" y="0" width="93" height="112.724" filterUnits="userSpaceOnUse" color-interpolation-filters="sRGB">
<feFlood flood-opacity="0" result="BackgroundImageFix"/>
<feColorMatrix in="SourceAlpha" type="matrix" values="0 0 0 0 0 0 0 0 0 0 0 0 0 0 0 0 0 0 127 0" result="hardAlpha"/>
<feMorphology radius="1.5" operator="erode" in="SourceAlpha" result="effect1_dropShadow_0_36"/>
<feOffset dy="3"/>
<feGaussianBlur stdDeviation="1.5"/>
<feColorMatrix type="matrix" values="0 0 0 0 0.0392157 0 0 0 0 0.0509804 0 0 0 0 0.0705882 0 0 0 0.04 0"/>
<feBlend mode="normal" in2="BackgroundImageFix" result="effect1_dropShadow_0_36"/>
<feColorMatrix in="SourceAlpha" type="matrix" values="0 0 0 0 0 0 0 0 0 0 0 0 0 0 0 0 0 0 127 0" result="hardAlpha"/>
<feMorphology radius="4" operator="erode" in="SourceAlpha" result="effect2_dropShadow_0_36"/>
<feOffset dy="8"/>
<feGaussianBlur stdDeviation="4"/>
<feColorMatrix type="matrix" values="0 0 0 0 0.0392157 0 0 0 0 0.0496732 0 0 0 0 0.0705882 0 0 0 0.03 0"/>
<feBlend mode="normal" in2="effect1_dropShadow_0_36" result="effect2_dropShadow_0_36"/>
<feColorMatrix in="SourceAlpha" type="matrix" values="0 0 0 0 0 0 0 0 0 0 0 0 0 0 0 0 0 0 127 0" result="hardAlpha"/>
<feMorphology radius="4" operator="erode" in="SourceAlpha" result="effect3_dropShadow_0_36"/>
<feOffset dy="20"/>
<feGaussianBlur stdDeviation="12"/>
<feColorMatrix type="matrix" values="0 0 0 0 0.0392157 0 0 0 0 0.0496732 0 0 0 0 0.0705882 0 0 0 0.08 0"/>
<feBlend mode="normal" in2="effect2_dropShadow_0_36" result="effect3_dropShadow_0_36"/>
<feBlend mode="normal" in="SourceGraphic" in2="effect3_dropShadow_0_36" result="shape"/>
</filter>
<linearGradient id="paint0_linear_0_36" x1="22.3109" y1="71.3751" x2="17.7388" y2="5.98399" gradientUnits="userSpaceOnUse">
<stop stop-color="#F5F5F5"/>
<stop offset="1" stop-color="#FAFAFA"/>
</linearGradient>
</defs>
</svg>
