<svg preserveAspectRatio="none" width="100%" height="100%" overflow="visible" style="display: block;" viewBox="0 0 32.9297 25.3027" fill="none" xmlns="http://www.w3.org/2000/svg">
<g id="Group">
<path id="Vector" opacity="0" d="M32.9297 0H0V25.3027H32.9297V0Z" fill="var(--fill-0, black)"/>
<g id="Vector_2">
<path d="M19.0039 0C24.375 2.9513e-06 28.5303 4.15527 28.5107 9.90723C31.0547 10.9424 32.5683 13.3887 32.5684 16.0938C32.5684 19.7949 29.375 22.749 25.3516 22.749L7.9248 22.7441C3.44728 22.7441 1.54969e-05 19.4922 0 15.5322C0 12.3242 1.80176 9.71191 4.70215 9.16016C4.87793 5.59571 8.21287 3.19338 11.4844 4.01855C13.1201 1.64062 15.7031 0 19.0039 0ZM18.9697 2.89062C15.9619 2.89062 14.165 4.50684 12.8955 6.70898C12.8076 6.85547 12.7002 6.88965 12.5391 6.84082C9.69725 5.95705 7.1045 7.40724 7.27051 11.001C7.28027 11.1865 7.19238 11.2891 7.01172 11.2891C4.53125 11.2891 2.94434 13.0273 2.94434 15.5322C2.94435 17.8857 5.08302 19.8584 7.92969 19.8584L25.3516 19.8633C27.7539 19.8633 29.6191 18.1934 29.6191 16.0938C29.6191 13.9209 28.1689 12.3584 25.8838 11.9678C25.7129 11.9434 25.6396 11.8359 25.6592 11.6602C25.7227 11.04 25.7812 10.2637 25.7422 9.5166C25.5469 5.88868 22.7686 2.89064 18.9697 2.89062Z" fill="var(--fill-0, white)"/>
<path d="M19.0039 0C24.375 2.9513e-06 28.5303 4.15527 28.5107 9.90723C31.0547 10.9424 32.5683 13.3887 32.5684 16.0938C32.5684 19.7949 29.375 22.749 25.3516 22.749L7.9248 22.7441C3.44728 22.7441 1.54969e-05 19.4922 0 15.5322C0 12.3242 1.80176 9.71191 4.70215 9.16016C4.87793 5.59571 8.21287 3.19338 11.4844 4.01855C13.1201 1.64062 15.7031 0 19.0039 0ZM18.9697 2.89062C15.9619 2.89062 14.165 4.50684 12.8955 6.70898C12.8076 6.85547 12.7002 6.88965 12.5391 6.84082C9.69725 5.95705 7.1045 7.40724 7.27051 11.001C7.28027 11.1865 7.19238 11.2891 7.01172 11.2891C4.53125 11.2891 2.94434 13.0273 2.94434 15.5322C2.94435 17.8857 5.08302 19.8584 7.92969 19.8584L25.3516 19.8633C27.7539 19.8633 29.6191 18.1934 29.6191 16.0938C29.6191 13.9209 28.1689 12.3584 25.8838 11.9678C25.7129 11.9434 25.6396 11.8359 25.6592 11.6602C25.7227 11.04 25.7812 10.2637 25.7422 9.5166C25.5469 5.88868 22.7686 2.89064 18.9697 2.89062Z" stroke="var(--stroke-0, black)"/>
</g>
</g>
</svg>
